<?xml version="1.0" encoding="UTF-8"?>
<!DOCTYPE svg PUBLIC "-//W3C//DTD SVG 1.1//EN" "http://www.w3.org/Graphics/SVG/1.1/DTD/svg11.dtd">
<svg xmlns="http://www.w3.org/2000/svg" version="1.1" width="256px" height="256px" style="shape-rendering:geometricPrecision; text-rendering:geometricPrecision; image-rendering:optimizeQuality; fill-rule:evenodd; clip-rule:evenodd" xmlns:xlink="http://www.w3.org/1999/xlink">
<g><path style="opacity:1" fill="#45b949" d="M -0.5,-0.5 C 84.8333,-0.5 170.167,-0.5 255.5,-0.5C 255.5,84.8333 255.5,170.167 255.5,255.5C 170.167,255.5 84.8333,255.5 -0.5,255.5C -0.5,170.167 -0.5,84.8333 -0.5,-0.5 Z"/></g>
<g><path style="opacity:1" fill="#000000" d="M 31.5,31.5 C 95.5,31.5 159.5,31.5 223.5,31.5C 223.5,95.5 223.5,159.5 223.5,223.5C 159.5,223.5 95.5,223.5 31.5,223.5C 31.5,159.5 31.5,95.5 31.5,31.5 Z"/></g>
<g><path style="opacity:1" fill="#45b949" d="M 64.5,63.5 C 74.1667,63.5 83.8333,63.5 93.5,63.5C 93.5,84.5 93.5,105.5 93.5,126.5C 83.8333,126.5 74.1667,126.5 64.5,126.5C 64.5,105.5 64.5,84.5 64.5,63.5 Z"/></g>
<g><path style="opacity:1" fill="#45b949" d="M 160.5,63.5 C 170.167,63.5 179.833,63.5 189.5,63.5C 189.5,84.5 189.5,105.5 189.5,126.5C 179.833,126.5 170.167,126.5 160.5,126.5C 160.5,105.5 160.5,84.5 160.5,63.5 Z"/></g>
<g><path style="opacity:1" fill="#45b949" d="M 95.5,160.5 C 116.833,160.5 138.167,160.5 159.5,160.5C 159.5,170.5 159.5,180.5 159.5,190.5C 138.167,190.5 116.833,190.5 95.5,190.5C 95.5,180.5 95.5,170.5 95.5,160.5 Z"/></g>
</svg>
